<svg width="46" height="14" viewBox="0 0 46 14" fill="none" xmlns="http://www.w3.org/2000/svg">
<path d="M8.77148 10.627V13H2.30273V10.627H8.77148ZM3.40137 0.203125V13H0.316406V0.203125H3.40137ZM20.3379 6.34668V6.86523C20.3379 7.84375 20.2002 8.72266 19.9248 9.50195C19.6553 10.2754 19.2715 10.9375 18.7734 11.4883C18.2754 12.0332 17.6865 12.4521 17.0068 12.7451C16.3271 13.0322 15.5771 13.1758 14.7568 13.1758C13.9307 13.1758 13.1748 13.0322 12.4893 12.7451C11.8096 12.4521 11.2178 12.0332 10.7139 11.4883C10.2158 10.9375 9.8291 10.2754 9.55371 9.50195C9.28418 8.72266 9.14941 7.84375 9.14941 6.86523V6.34668C9.14941 5.36816 9.28418 4.48926 9.55371 3.70996C9.8291 2.93066 10.2129 2.26855 10.7051 1.72363C11.2031 1.17285 11.792 0.753906 12.4717 0.466797C13.1572 0.173828 13.9131 0.0273438 14.7393 0.0273438C15.5596 0.0273438 16.3096 0.173828 16.9893 0.466797C17.6748 0.753906 18.2666 1.17285 18.7646 1.72363C19.2627 2.26855 19.6494 2.93066 19.9248 3.70996C20.2002 4.48926 20.3379 5.36816 20.3379 6.34668ZM17.209 6.86523V6.3291C17.209 5.69629 17.1533 5.13965 17.042 4.65918C16.9365 4.17285 16.7783 3.76562 16.5674 3.4375C16.3564 3.10938 16.0957 2.86328 15.7852 2.69922C15.4805 2.5293 15.1318 2.44434 14.7393 2.44434C14.3291 2.44434 13.9717 2.5293 13.667 2.69922C13.3623 2.86328 13.1074 3.10938 12.9023 3.4375C12.6973 3.76562 12.542 4.17285 12.4365 4.65918C12.3369 5.13965 12.2871 5.69629 12.2871 6.3291V6.86523C12.2871 7.49219 12.3369 8.04883 12.4365 8.53516C12.542 9.01562 12.6973 9.42285 12.9023 9.75684C13.1133 10.0908 13.3711 10.3428 13.6758 10.5127C13.9863 10.6826 14.3467 10.7676 14.7568 10.7676C15.1494 10.7676 15.498 10.6826 15.8027 10.5127C16.1074 10.3428 16.3623 10.0908 16.5674 9.75684C16.7783 9.42285 16.9365 9.01562 17.042 8.53516C17.1533 8.04883 17.209 7.49219 17.209 6.86523ZM32.4053 6.16211V11.418C32.1885 11.6582 31.8545 11.916 31.4033 12.1914C30.958 12.4609 30.3955 12.6924 29.7158 12.8857C29.0361 13.0791 28.2363 13.1758 27.3164 13.1758C26.4668 13.1758 25.6963 13.041 25.0049 12.7715C24.3135 12.4961 23.7188 12.0947 23.2207 11.5674C22.7285 11.0342 22.3477 10.3838 22.0781 9.61621C21.8145 8.84277 21.6826 7.95801 21.6826 6.96191V6.25C21.6826 5.25391 21.8174 4.36914 22.0869 3.5957C22.3564 2.82227 22.7344 2.17188 23.2207 1.64453C23.7129 1.11133 24.29 0.707031 24.9521 0.431641C25.6201 0.15625 26.3525 0.0185547 27.1494 0.0185547C28.3271 0.0185547 29.2852 0.206055 30.0234 0.581055C30.7617 0.950195 31.3213 1.46289 31.7021 2.11914C32.083 2.76953 32.3145 3.52246 32.3965 4.37793H29.4346C29.376 3.95605 29.2646 3.59863 29.1006 3.30566C28.9424 3.00684 28.7139 2.78125 28.415 2.62891C28.1162 2.4707 27.7295 2.3916 27.2549 2.3916C26.8857 2.3916 26.5488 2.4707 26.2441 2.62891C25.9453 2.78711 25.6904 3.02734 25.4795 3.34961C25.2686 3.66602 25.1045 4.06445 24.9873 4.54492C24.876 5.02539 24.8203 5.58789 24.8203 6.23242V6.96191C24.8203 7.60059 24.873 8.16016 24.9785 8.64062C25.0898 9.12109 25.2539 9.52246 25.4707 9.84473C25.6934 10.1611 25.9746 10.4014 26.3145 10.5654C26.6602 10.7236 27.0674 10.8027 27.5361 10.8027C27.8643 10.8027 28.1455 10.7764 28.3799 10.7236C28.6143 10.665 28.8076 10.5947 28.96 10.5127C29.1182 10.4248 29.2383 10.3428 29.3203 10.2666V8.28027H27.1758V6.16211H32.4053ZM45.0352 6.34668V6.86523C45.0352 7.84375 44.8975 8.72266 44.6221 9.50195C44.3525 10.2754 43.9688 10.9375 43.4707 11.4883C42.9727 12.0332 42.3838 12.4521 41.7041 12.7451C41.0244 13.0322 40.2744 13.1758 39.4541 13.1758C38.6279 13.1758 37.8721 13.0322 37.1865 12.7451C36.5068 12.4521 35.915 12.0332 35.4111 11.4883C34.9131 10.9375 34.5264 10.2754 34.251 9.50195C33.9814 8.72266 33.8467 7.84375 33.8467 6.86523V6.34668C33.8467 5.36816 33.9814 4.48926 34.251 3.70996C34.5264 2.93066 34.9102 2.26855 35.4023 1.72363C35.9004 1.17285 36.4893 0.753906 37.1689 0.466797C37.8545 0.173828 38.6104 0.0273438 39.4365 0.0273438C40.2568 0.0273438 41.0068 0.173828 41.6865 0.466797C42.3721 0.753906 42.9639 1.17285 43.4619 1.72363C43.96 2.26855 44.3467 2.93066 44.6221 3.70996C44.8975 4.48926 45.0352 5.36816 45.0352 6.34668ZM41.9062 6.86523V6.3291C41.9062 5.69629 41.8506 5.13965 41.7393 4.65918C41.6338 4.17285 41.4756 3.76562 41.2646 3.4375C41.0537 3.10938 40.793 2.86328 40.4824 2.69922C40.1777 2.5293 39.8291 2.44434 39.4365 2.44434C39.0264 2.44434 38.6689 2.5293 38.3643 2.69922C38.0596 2.86328 37.8047 3.10938 37.5996 3.4375C37.3945 3.76562 37.2393 4.17285 37.1338 4.65918C37.0342 5.13965 36.9844 5.69629 36.9844 6.3291V6.86523C36.9844 7.49219 37.0342 8.04883 37.1338 8.53516C37.2393 9.01562 37.3945 9.42285 37.5996 9.75684C37.8105 10.0908 38.0684 10.3428 38.373 10.5127C38.6836 10.6826 39.0439 10.7676 39.4541 10.7676C39.8467 10.7676 40.1953 10.6826 40.5 10.5127C40.8047 10.3428 41.0596 10.0908 41.2646 9.75684C41.4756 9.42285 41.6338 9.01562 41.7393 8.53516C41.8506 8.04883 41.9062 7.49219 41.9062 6.86523Z" fill="white"/>
</svg>
