<svg width="40" height="40" viewBox="0 0 40 40" fill="none" xmlns="http://www.w3.org/2000/svg">
<path d="M24.841 19.7933C24.24 19.3208 23.3455 18.9422 22.18 18.6677L19.6231 18.065C19.2115 17.9695 18.8763 17.8826 18.5966 17.801C18.3126 17.7288 18.0371 17.6263 17.775 17.4953C17.6134 17.4207 17.4776 17.2999 17.3849 17.148C17.2921 16.9962 17.2465 16.8202 17.2539 16.6424C17.2459 16.4368 17.2937 16.2328 17.3921 16.0521C17.4906 15.8714 17.6361 15.7206 17.8132 15.6159C18.0488 15.4667 18.3086 15.3597 18.581 15.2997C18.8969 15.2302 19.2198 15.197 19.5432 15.2007C20.0823 15.1847 20.6186 15.283 21.1169 15.4891L21.1951 15.5273C21.555 15.6962 21.8427 15.9882 22.0063 16.3506C22.1435 16.6692 22.37 16.9413 22.6585 17.134C22.9471 17.3266 23.2852 17.4316 23.6321 17.4362H23.7398C24.0372 17.4365 24.3299 17.3615 24.5905 17.2181C24.8511 17.0748 25.0711 16.8677 25.2301 16.6164C25.3886 16.3694 25.4819 16.0863 25.5013 15.7935C25.5207 15.5006 25.4657 15.2077 25.3413 14.9419C25.0281 14.2689 24.5502 13.6858 23.9517 13.2466C23.2583 12.7352 22.4691 12.3683 21.6311 12.168V11.6851C21.6311 11.2244 21.4481 10.7826 21.1223 10.4569C20.7966 10.1311 20.3548 9.94812 19.8941 9.94812C19.4334 9.94812 18.9916 10.1311 18.6659 10.4569C18.3401 10.7826 18.1571 11.2244 18.1571 11.6851V12.0776C16.9777 12.2705 16.0172 12.6943 15.2963 13.3422C14.7946 13.779 14.3946 14.3204 14.1245 14.9284C13.8544 15.5364 13.7208 16.1961 13.7331 16.8613C13.7331 18.4089 14.2802 19.5692 15.3606 20.3092C15.9495 20.7174 16.9534 21.0821 18.4264 21.4226L18.6834 21.4816L20.2624 21.829C20.6098 21.9054 20.9137 21.9801 21.1743 22.06C21.5216 22.1546 21.8563 22.2905 22.1713 22.4647C22.3177 22.5434 22.4393 22.6613 22.5224 22.8052C22.6055 22.9491 22.647 23.1133 22.642 23.2794C22.642 23.9499 22.3033 24.3789 21.579 24.6325C21.4555 24.6741 21.3296 24.7083 21.2021 24.735C20.7759 24.8183 20.3422 24.8573 19.908 24.8513C19.4697 24.8584 19.0326 24.8052 18.6088 24.6933C18.2147 24.5946 17.859 24.3805 17.5874 24.0784C17.4737 23.9355 17.3834 23.7754 17.3199 23.6042C17.2299 23.374 17.094 23.1644 16.9206 22.9882C16.7472 22.8121 16.5399 22.6729 16.3111 22.5791C16.0824 22.4854 15.837 22.439 15.5898 22.4429C15.3427 22.4467 15.0988 22.5007 14.8731 22.6015C14.6474 22.7023 14.4445 22.8478 14.2766 23.0293C14.1088 23.2108 13.9795 23.4245 13.8967 23.6574C13.8138 23.8903 13.779 24.1376 13.7945 24.3843C13.81 24.631 13.8754 24.8721 13.9867 25.0928C14.2935 25.7094 14.7359 26.2486 15.2807 26.67C16.1231 27.3066 17.1102 27.7244 18.1537 27.8858V28.3131C18.1537 28.7738 18.3367 29.2156 18.6624 29.5414C18.9882 29.8671 19.43 30.0501 19.8906 30.0501C20.3513 30.0501 20.7931 29.8671 21.1189 29.5414C21.4446 29.2156 21.6276 28.7738 21.6276 28.3131V27.924C22.8435 27.7295 23.8423 27.2987 24.6169 26.637C25.1474 26.2032 25.5729 25.6551 25.8617 25.0336C26.1504 24.4122 26.295 23.7335 26.2844 23.0484C26.2792 21.6432 25.7963 20.5471 24.841 19.7933Z" fill="#00C900" stroke="black" stroke-width="0.125"/>
<path d="M20 37.5C29.665 37.5 37.5 29.665 37.5 20C37.5 10.335 29.665 2.5 20 2.5C10.335 2.5 2.5 10.335 2.5 20C2.5 29.665 10.335 37.5 20 37.5Z" stroke="#00C900" stroke-width="2.5" stroke-linecap="round" stroke-linejoin="round"/>
</svg>
