<svg width="32" height="32" viewBox="0 0 32 32" fill="none" xmlns="http://www.w3.org/2000/svg">
<path d="M16 18.6667V22.6667M16 18.6667C12.7747 18.6667 10.0844 16.3763 9.46669 13.3333M16 18.6667C19.2253 18.6667 21.9156 16.3763 22.5333 13.3333M16 22.6667C17.24 22.6667 17.86 22.6667 18.3687 22.8029C19.7489 23.1728 20.8272 24.2511 21.1971 25.6313C21.3333 26.14 21.3333 26.76 21.3333 28H10.6667C10.6667 26.76 10.6667 26.14 10.803 25.6313C11.1728 24.2511 12.251 23.1728 13.6313 22.8029C14.14 22.6667 14.76 22.6667 16 22.6667ZM9.46669 13.3333H9.33333H9C8.07069 13.3333 7.60604 13.3333 7.21964 13.2565C5.63288 12.9409 4.39248 11.7005 4.07685 10.1137C4 9.72729 4 9.26264 4 8.33333C4 8.02356 4 7.86868 4.02561 7.73988C4.13083 7.21096 4.54429 6.79749 5.07321 6.69228C5.20201 6.66667 5.35689 6.66667 5.66667 6.66667H9.33333M9.46669 13.3333C9.37924 12.9025 9.33333 12.4566 9.33333 12V6.09524C9.33333 5.38441 9.33333 5.02901 9.46537 4.75483C9.59643 4.48268 9.81601 4.26309 10.0882 4.13204C10.3623 4 10.7177 4 11.4286 4H20.5715C21.2823 4 21.6376 4 21.9119 4.13204C22.184 4.26309 22.4036 4.48268 22.5347 4.75483C22.6667 5.02901 22.6667 5.38441 22.6667 6.09524V12C22.6667 12.4566 22.6208 12.9025 22.5333 13.3333M22.5333 13.3333H22.6667H23C23.9293 13.3333 24.394 13.3333 24.7804 13.2565C26.3671 12.9409 27.6075 11.7005 27.9232 10.1137C28 9.72729 28 9.26264 28 8.33333C28 8.02356 28 7.86868 27.9744 7.73988C27.8692 7.21096 27.4557 6.79749 26.9268 6.69228C26.798 6.66667 26.6431 6.66667 26.3333 6.66667H22.6667" stroke="#C4C4CC" stroke-width="2.5" stroke-linecap="round" stroke-linejoin="round"/>
</svg>
