<svg width="32" height="32" viewBox="0 0 32 32" fill="none" xmlns="http://www.w3.org/2000/svg">
<path d="M11.56 18.6666H5.33335C3.86669 18.6666 2.66669 19.8666 2.66669 21.3333V29.3333H11.56V18.6666Z" stroke="#C4C4CC" stroke-width="1.4" stroke-miterlimit="10" stroke-linecap="round" stroke-linejoin="round"/>
<path d="M17.7734 13.3333H14.2134C12.7468 13.3333 11.5468 14.5333 11.5468 16V29.3333H20.44V16C20.44 14.5333 19.2534 13.3333 17.7734 13.3333Z" stroke="#C4C4CC" stroke-width="1.4" stroke-miterlimit="10" stroke-linecap="round" stroke-linejoin="round"/>
<path d="M26.6667 22.6666H20.44V29.3333H29.3333V25.3333C29.3333 23.8666 28.1333 22.6666 26.6667 22.6666Z" stroke="#C4C4CC" stroke-width="1.4" stroke-miterlimit="10" stroke-linecap="round" stroke-linejoin="round"/>
<path d="M16.6933 2.76007L17.4 4.17339C17.4933 4.37339 17.7467 4.56006 17.96 4.58672L19.24 4.80007C20.0533 4.9334 20.2533 5.53338 19.6667 6.10671L18.6667 7.10671C18.4933 7.28004 18.4 7.60006 18.4533 7.82672L18.7333 9.0534C18.96 10.0267 18.44 10.4001 17.5867 9.8934L16.3867 9.18674C16.1733 9.0534 15.8133 9.0534 15.6 9.18674L14.4 9.8934C13.5467 10.4001 13.0267 10.0267 13.2533 9.0534L13.5333 7.82672C13.5867 7.60006 13.4933 7.26671 13.32 7.10671L12.3333 6.12006C11.7467 5.53339 11.9333 4.94671 12.76 4.81338L14.04 4.60007C14.2533 4.56007 14.5067 4.3734 14.6 4.18674L15.3067 2.77338C15.6933 2.00004 16.3067 2.00007 16.6933 2.76007Z" stroke="#C4C4CC" stroke-width="1.4" stroke-linecap="round" stroke-linejoin="round"/>
</svg>
