<svg width="32" height="32" viewBox="0 0 32 32" fill="none" xmlns="http://www.w3.org/2000/svg">
<path d="M14.9933 5.56532C15.302 4.67742 15.4562 4.23349 15.6845 4.11045C15.882 4.00396 16.1197 4.00396 16.3173 4.11045C16.5454 4.23349 16.6997 4.67742 17.0084 5.56532L19.0488 11.4352C19.1366 11.6879 19.1805 11.8142 19.2597 11.9083C19.3296 11.9914 19.4188 12.0562 19.5194 12.097C19.6333 12.1432 19.767 12.1459 20.0345 12.1514L26.2476 12.278C27.1874 12.2972 27.6573 12.3067 27.8449 12.4857C28.0072 12.6407 28.0806 12.8668 28.0404 13.0876C27.994 13.3426 27.6194 13.6265 26.8704 14.1945L21.9182 17.9488C21.705 18.1105 21.5985 18.1913 21.5334 18.2956C21.476 18.3878 21.442 18.4926 21.4342 18.6009C21.4256 18.7236 21.4642 18.8516 21.5417 19.1077L23.3413 25.0559C23.6134 25.9556 23.7496 26.4054 23.6373 26.639C23.5401 26.8413 23.3477 26.9811 23.1253 27.0111C22.8684 27.0456 22.4826 26.7772 21.711 26.2403L16.6101 22.6908C16.3905 22.538 16.2808 22.4616 16.1614 22.4318C16.056 22.4057 15.9457 22.4057 15.8404 22.4318C15.721 22.4616 15.6112 22.538 15.3916 22.6908L10.2907 26.2403C9.51914 26.7772 9.13335 27.0456 8.87642 27.0111C8.65406 26.9811 8.46166 26.8413 8.36447 26.639C8.25218 26.4054 8.38829 25.9556 8.66049 25.0559L10.46 19.1077C10.5375 18.8516 10.5762 18.7236 10.5675 18.6009C10.5598 18.4926 10.5257 18.3878 10.4683 18.2956C10.4033 18.1913 10.2967 18.1105 10.0835 17.9488L5.13142 14.1945C4.38235 13.6265 4.00782 13.3426 3.96133 13.0876C3.92107 12.8668 3.99457 12.6407 4.15687 12.4857C4.34439 12.3067 4.8143 12.2972 5.7541 12.278L11.9672 12.1514C12.2346 12.1459 12.3684 12.1432 12.4823 12.097C12.583 12.0562 12.6722 11.9914 12.7421 11.9083C12.8212 11.8142 12.8651 11.6879 12.953 11.4352L14.9933 5.56532Z" stroke="#C4C4CC" stroke-width="2.5" stroke-linecap="round" stroke-linejoin="round"/>
</svg>
